<svg t="1673957863768" class="icon" viewBox="0 0 1024 1024" version="1.1" xmlns="http://www.w3.org/2000/svg" p-id="20358" width="16" height="16"><path d="M347.818667 615.850667A147.157333 147.157333 0 0 0 277.333333 597.333333C194.986667 597.333333 128 664.32 128 746.666667S194.986667 896 277.333333 896s149.333333-66.986667 149.333334-149.333333c0-25.642667-7.082667-49.408-18.517334-70.485334L512 572.330667 793.002667 853.333333h120.661333L408.149333 347.818667A147.157333 147.157333 0 0 0 426.666667 277.333333C426.666667 194.986667 359.68 128 277.333333 128S128 194.986667 128 277.333333 194.986667 426.666667 277.333333 426.666667c25.642667 0 49.408-7.082667 70.485334-18.517334L451.669333 512l-103.850666 103.850667zM277.333333 810.666667c-35.285333 0-64-28.714667-64-64S242.048 682.666667 277.333333 682.666667s64 28.714667 64 64S312.618667 810.666667 277.333333 810.666667zM213.333333 277.333333C213.333333 242.048 242.048 213.333333 277.333333 213.333333S341.333333 242.048 341.333333 277.333333 312.618667 341.333333 277.333333 341.333333 213.333333 312.618667 213.333333 277.333333z" fill="#bfbfbf" p-id="20359"></path><path d="M567.168 396.501333l60.330667 60.330667L913.664 170.666667h-120.661333z" fill="#bfbfbf" p-id="20360"></path></svg>