<?xml version="1.0" standalone="no"?><!DOCTYPE svg PUBLIC "-//W3C//DTD SVG 1.1//EN" "http://www.w3.org/Graphics/SVG/1.1/DTD/svg11.dtd"><svg t="1673880269830" class="icon" viewBox="0 0 1024 1024" version="1.1" xmlns="http://www.w3.org/2000/svg" p-id="1353" xmlns:xlink="http://www.w3.org/1999/xlink" width="200" height="200"><path d="M862 902c0 16.569-13.431 30-30 30H192c-16.569 0-30-13.431-30-30V122c0-16.569 13.431-30 30-30h476l194 194v616z" fill="#FFAB4E" p-id="1354"></path><path d="M862 286H698c-16.569 0-30-13.431-30-30V92" fill="#FFFFFF" fill-opacity=".296" p-id="1355"></path><path d="M245.007043 548.186003m15.909903-15.909902l111.015764-111.015765q15.909903-15.909903 31.819805 0l0 0q15.909903 15.909903 0 31.819805l-111.015764 111.015765q-15.909903 15.909903-31.819805 0l0 0q-15.909903-15.909903 0-31.819805Z" fill="#FFFFFF" p-id="1356"></path><path d="M292.736751 532.260544l111.015764 111.015765c8.786509 8.786509 8.787216 23.032589 0 31.819805-8.786509 8.786509-23.033296 8.786509-31.819805 0l-111.015764-111.015764C252.130437 555.293841 252.130437 541.047053 260.916946 532.260544c8.787216-8.787216 23.033296-8.786509 31.819805 0z" fill="#FFFFFF" p-id="1357"></path><path d="M451.835252 687.708405m5.823428-21.733331l66.516495-248.242937q5.823429-21.733331 27.55676-15.909903l0 0q21.733331 5.823429 15.909902 27.55676l-66.516494 248.242937q-5.823429 21.733331-27.55676 15.909903l0 0q-21.733331-5.823429-15.909903-27.55676Z" fill="#FFFFFF" p-id="1358"></path><path d="M779.499086 548.186057m-15.909902-15.909903l-111.015765-111.015764q-15.909903-15.909903-31.819805 0l0 0q-15.909903 15.909903 0 31.819805l111.015765 111.015764q15.909903 15.909903 31.819805 0l0 0q15.909903-15.909903 0-31.819805Z" fill="#FFFFFF" p-id="1359"></path><path d="M731.769379 532.260598l-111.015765 111.015765c-8.786509 8.786509-8.787216 23.032589 0 31.819805 8.786509 8.786509 23.033296 8.786509 31.819805 0l111.015765-111.015765C772.375693 555.293894 772.375693 541.047107 763.589184 532.260598c-8.787216-8.787216-23.033296-8.786509-31.819805 0z" fill="#FFFFFF" p-id="1360"></path></svg>