<svg t="1673957952134" class="icon" viewBox="0 0 1024 1024" version="1.1" xmlns="http://www.w3.org/2000/svg" p-id="23669" width="16" height="16"><path d="M810.666667 85.333333h-179.2C614.4 34.133333 567.466667 0 512 0c-55.466667 0-102.4 34.133333-119.466667 85.333333H213.333333c-46.933333 0-85.333333 38.4-85.333333 85.333334v682.666666c0 46.933333 38.4 85.333333 85.333333 85.333334h597.333334c46.933333 0 85.333333-38.4 85.333333-85.333334V170.666667c0-46.933333-38.4-85.333333-85.333333-85.333334z m-298.666667 0c25.6 0 42.666667 17.066667 42.666667 42.666667s-17.066667 42.666667-42.666667 42.666667-42.666667-17.066667-42.666667-42.666667 17.066667-42.666667 42.666667-42.666667z m298.666667 768H213.333333V170.666667h85.333334v128h426.666666V170.666667h85.333334v682.666666z" p-id="23670" fill="#bfbfbf"></path></svg>